<?xml version="1.0" standalone="no"?>
<!DOCTYPE svg PUBLIC "-//W3C//DTD SVG 20010904//EN"
 "http://www.w3.org/TR/2001/REC-SVG-20010904/DTD/svg10.dtd">
<svg version="1.0" xmlns="http://www.w3.org/2000/svg"
 width="926.000000pt" height="648.000000pt" viewBox="0 0 926.000000 648.000000"
 preserveAspectRatio="xMidYMid meet" style="enable-background:new 0 0 60 60;">

<g transform="translate(0.000000,648.000000) scale(0.100000,-0.100000)"
fill="#000000" stroke="none">
<path d="M5080 5450 c0 -5 -18 -10 -40 -10 -22 0 -40 -4 -40 -10 0 -5 -9 -10
-20 -10 -11 0 -20 -4 -20 -10 0 -5 -9 -10 -20 -10 -11 0 -20 -4 -20 -10 0 -5
-9 -10 -20 -10 -11 0 -20 -4 -20 -10 0 -5 -7 -10 -16 -10 -8 0 -12 -4 -9 -10
3 -5 -1 -10 -10 -10 -8 0 -49 -34 -90 -75 -42 -41 -80 -75 -85 -75 -5 0 -204
-194 -440 -430 -254 -254 -435 -428 -442 -424 -7 4 -8 3 -4 -4 4 -7 2 -12 -4
-12 -6 0 -55 -45 -110 -100 -55 -55 -104 -100 -110 -100 -6 0 -38 -27 -70 -60
-32 -33 -64 -60 -70 -60 -6 0 -29 -18 -50 -40 -21 -22 -43 -40 -49 -40 -16 0
-181 -167 -181 -183 0 -7 -9 -19 -20 -27 -11 -8 -20 -21 -20 -30 0 -9 -9 -22
-20 -30 -11 -8 -20 -22 -20 -32 0 -10 -4 -18 -10 -18 -5 0 -10 -9 -10 -20 0
-11 -4 -20 -10 -20 -5 0 -10 -9 -10 -20 0 -11 -4 -20 -10 -20 -5 0 -10 -13
-10 -30 0 -16 -4 -30 -10 -30 -5 0 -10 -9 -10 -20 0 -11 -4 -20 -10 -20 -5 0
-10 -18 -10 -40 0 -22 -4 -40 -10 -40 -5 0 -10 -22 -10 -49 0 -28 -4 -53 -10
-56 -6 -4 -10 -72 -10 -171 0 -103 4 -164 10 -164 6 0 10 -27 10 -60 0 -33 4
-60 10 -60 6 0 10 -13 10 -30 0 -16 5 -30 10 -30 6 0 10 -13 10 -30 0 -16 5
-30 10 -30 6 0 10 -9 10 -20 0 -11 5 -20 10 -20 6 0 10 -13 10 -28 0 -16 8
-34 20 -42 11 -8 20 -22 20 -32 0 -10 5 -18 10 -18 6 0 10 -8 10 -18 0 -10 9
-24 20 -32 11 -8 20 -20 20 -27 0 -16 205 -223 220 -223 6 0 8 -5 4 -12 -4 -6
-3 -8 4 -4 6 3 17 -1 25 -9 9 -8 23 -15 31 -15 9 0 16 -4 16 -10 0 -5 9 -10
21 -10 11 0 17 -4 14 -10 -4 -6 5 -10 19 -10 14 0 26 -4 26 -10 0 -5 9 -10 20
-10 11 0 20 -4 20 -10 0 -5 14 -10 30 -10 17 0 30 -4 30 -10 0 -5 14 -10 30
-10 17 0 30 -4 30 -10 0 -5 18 -10 40 -10 22 0 40 -4 40 -10 0 -6 77 -10 210
-10 133 0 210 4 210 10 0 6 27 10 60 10 33 0 60 4 60 10 0 6 14 10 30 10 17 0
30 5 30 10 0 6 14 10 30 10 17 0 30 5 30 10 0 6 9 10 20 10 11 0 20 5 20 10 0
6 9 10 20 10 11 0 20 5 20 10 0 6 9 10 20 10 11 0 20 4 20 8 0 5 12 15 28 23
15 8 34 22 43 31 9 10 22 18 28 18 14 0 141 126 141 140 0 16 108 120 125 120
8 0 15 -7 15 -15 0 -18 265 -285 283 -285 7 0 19 -9 27 -20 8 -11 22 -20 32
-20 10 0 18 -4 18 -10 0 -5 9 -10 20 -10 11 0 20 -4 20 -10 0 -5 14 -10 30
-10 17 0 30 -4 30 -10 0 -5 9 -10 20 -10 11 0 20 -4 20 -10 0 -5 18 -10 40
-10 22 0 40 -4 40 -10 0 -5 23 -10 50 -10 28 0 50 -4 50 -10 0 -6 77 -10 210
-10 133 0 210 4 210 10 0 6 21 10 46 10 27 0 43 4 39 10 -4 6 10 10 34 10 23
0 41 5 41 10 0 6 9 10 20 10 11 0 20 5 20 10 0 6 14 10 30 10 17 0 30 5 30 10
0 6 9 10 20 10 11 0 20 5 20 10 0 6 8 10 18 10 10 0 24 9 32 20 8 11 21 20 29
20 7 0 21 9 30 19 10 11 24 21 31 23 19 4 180 167 180 182 0 6 9 18 20 26 11
8 20 22 20 32 0 10 5 18 10 18 6 0 10 9 10 20 0 11 5 20 10 20 6 0 10 9 10 20
0 11 5 20 10 20 6 0 10 9 10 20 0 11 5 20 10 20 6 0 10 14 10 30 0 17 5 30 10
30 6 0 10 23 10 50 0 28 5 50 10 50 6 0 10 5 10 10 0 6 -42 10 -105 10 l-106
0 -34 -35 c-19 -19 -35 -39 -35 -45 0 -6 -22 -33 -50 -60 -27 -27 -50 -54 -50
-59 0 -16 -167 -181 -183 -181 -7 0 -19 -9 -27 -20 -8 -11 -22 -20 -32 -20
-10 0 -18 -4 -18 -10 0 -5 -9 -10 -20 -10 -11 0 -20 -4 -20 -10 0 -5 -13 -10
-30 -10 -16 0 -30 -4 -30 -10 0 -5 -13 -10 -30 -10 -16 0 -30 -4 -30 -10 0 -5
-18 -10 -40 -10 -22 0 -40 -4 -40 -10 0 -6 -47 -10 -120 -10 -73 0 -120 4
-120 10 0 6 -22 10 -50 10 -27 0 -50 5 -50 10 0 6 -13 10 -30 10 -16 0 -30 5
-30 10 0 6 -9 10 -20 10 -11 0 -20 5 -20 10 0 6 -9 10 -20 10 -11 0 -20 5 -20
10 0 6 -9 10 -20 10 -11 0 -20 5 -20 10 0 6 -7 10 -16 10 -9 0 -29 14 -45 31
-16 17 -29 26 -29 20 0 -6 -20 9 -45 33 -25 25 -45 51 -45 57 0 6 -13 24 -30
39 -16 15 -30 35 -30 44 0 9 -4 16 -10 16 -5 0 -10 8 -10 18 0 10 -9 24 -20
32 -12 8 -20 26 -20 42 0 15 -4 28 -10 28 -5 0 -10 18 -10 40 0 22 5 40 10 40
6 0 10 9 10 20 0 11 5 20 10 20 6 0 10 9 10 20 0 11 5 20 10 20 6 0 10 7 10
16 0 8 18 33 40 54 22 21 40 46 40 54 0 9 8 16 20 16 11 0 20 5 20 10 0 6 23
10 50 10 28 0 50 -4 50 -10 0 -5 18 -10 40 -10 22 0 40 -4 40 -10 0 -5 9 -10
20 -10 11 0 20 -4 20 -10 0 -5 9 -10 20 -10 11 0 20 -4 20 -10 0 -5 9 -10 20
-10 11 0 20 -4 20 -10 0 -5 8 -10 18 -10 10 0 24 -9 32 -20 8 -11 22 -20 32
-20 10 0 18 -4 18 -10 0 -5 9 -10 20 -10 11 0 20 -4 20 -10 0 -6 27 -10 60
-10 33 0 60 4 60 10 0 6 9 10 20 10 11 0 20 5 20 10 0 6 8 10 18 10 10 0 24 9
32 20 8 11 22 20 32 20 10 0 18 5 18 10 0 6 6 10 13 10 7 0 23 9 35 20 12 11
28 20 37 20 8 0 15 6 15 13 0 8 4 7 10 -3 6 -10 10 -11 10 -2 0 9 83 12 380
12 l380 0 0 70 c0 40 -4 70 -10 70 -6 0 -10 27 -10 60 0 33 -4 60 -10 60 -5 0
-10 18 -10 40 0 22 -4 40 -10 40 -5 0 -10 18 -10 40 0 22 -4 40 -10 40 -5 0
-10 9 -10 20 0 11 -4 20 -10 20 -5 0 -10 14 -10 30 0 17 -4 30 -10 30 -5 0
-10 9 -10 20 0 11 -4 20 -10 20 -5 0 -10 8 -10 18 0 10 -9 24 -20 32 -11 8
-20 21 -20 30 0 9 -9 22 -20 30 -11 8 -20 20 -20 27 0 17 -48 63 -65 63 -8 0
-15 7 -15 15 0 21 -138 157 -151 149 -5 -3 -9 -2 -8 3 1 4 1 15 0 23 -1 13 -2
13 -11 0 -8 -12 -10 -11 -10 8 0 20 -5 24 -26 21 -4 0 -13 13 -21 29 -8 16
-26 35 -41 43 -30 16 -272 254 -272 268 0 5 -27 37 -60 70 -53 54 -60 66 -60
102 0 24 -4 38 -10 34 -6 -4 -10 8 -10 29 0 19 5 38 10 41 6 4 10 70 10 166 0
99 -4 159 -10 159 -5 0 -10 18 -10 40 0 22 -4 40 -10 40 -5 0 -10 9 -10 20 0
11 -4 20 -10 20 -5 0 -10 8 -10 18 0 10 -9 24 -20 32 -11 8 -20 22 -20 32 0
10 -4 18 -10 18 -5 0 -10 7 -10 15 0 17 -104 125 -120 125 -6 0 -22 11 -36 25
-14 14 -29 23 -33 21 -4 -3 -14 4 -21 15 -8 10 -22 19 -32 19 -10 0 -18 5 -18
10 0 6 -13 10 -30 10 -16 0 -30 5 -30 10 0 6 -18 10 -39 10 -22 0 -43 5 -46
10 -4 6 -58 10 -131 10 -76 0 -124 -4 -124 -10z m220 -240 c0 -5 14 -10 30
-10 17 0 30 -4 30 -10 0 -5 8 -10 18 -10 10 0 24 -9 32 -20 8 -11 20 -20 27
-20 19 0 103 -86 103 -105 0 -8 5 -15 10 -15 6 0 10 -9 10 -20 0 -11 5 -20 10
-20 6 0 10 -9 10 -20 0 -11 5 -20 10 -20 6 0 10 -13 10 -30 0 -16 5 -30 10
-30 6 0 10 -13 10 -30 0 -16 5 -30 10 -30 6 0 10 -13 10 -30 0 -36 -20 -40
-52 -10 -12 11 -28 20 -35 20 -7 0 -13 5 -13 10 0 6 -8 10 -18 10 -10 0 -24 9
-32 20 -8 11 -22 20 -32 20 -10 0 -18 5 -18 10 0 6 -9 10 -20 10 -11 0 -20 5
-20 10 0 6 -9 10 -20 10 -11 0 -20 5 -20 10 0 6 -9 10 -20 10 -11 0 -20 5 -20
10 0 6 -18 10 -40 10 -22 0 -40 5 -40 10 0 6 -47 10 -120 10 -73 0 -120 -4
-120 -10 0 -5 -18 -10 -40 -10 -22 0 -40 -4 -40 -10 0 -5 -9 -10 -20 -10 -11
0 -20 -4 -20 -10 0 -5 -14 -10 -31 -10 -17 0 -28 -4 -24 -10 3 -5 -1 -10 -9
-10 -9 0 -16 -4 -16 -10 0 -5 -8 -10 -18 -10 -10 0 -24 -9 -32 -20 -8 -11 -20
-20 -27 -20 -17 0 -103 -86 -103 -103 0 -7 -9 -19 -20 -27 -11 -8 -20 -21 -20
-30 0 -9 -9 -22 -20 -30 -11 -8 -20 -22 -20 -32 0 -10 -4 -18 -10 -18 -5 0
-10 -13 -10 -30 0 -16 -4 -30 -10 -30 -5 0 -10 -13 -10 -30 0 -16 -4 -30 -10
-30 -6 0 -10 -50 -10 -130 0 -80 4 -130 10 -130 6 0 10 -22 10 -50 0 -27 5
-50 10 -50 6 0 10 -22 10 -50 0 -27 5 -50 10 -50 6 0 10 -4 10 -10 0 -5 -9
-10 -20 -10 -11 0 -20 5 -20 10 0 6 -9 10 -20 10 -11 0 -20 5 -20 10 0 6 -9
10 -20 10 -11 0 -20 5 -20 10 0 6 -11 10 -24 10 -14 0 -28 5 -31 10 -3 6 -15
10 -26 10 -10 0 -19 5 -19 10 0 6 -18 10 -40 10 -22 0 -40 5 -40 10 0 6 -18
10 -40 10 -22 0 -40 5 -40 10 0 6 -22 10 -50 10 -27 0 -50 5 -50 10 0 6 -22
10 -50 10 -27 0 -50 3 -50 6 0 3 18 23 40 44 22 21 40 46 40 54 0 9 8 16 21
16 11 0 18 4 14 9 -7 13 210 231 230 231 8 0 15 9 15 20 0 11 7 20 15 20 8 0
146 131 305 290 159 160 295 290 301 290 6 0 24 14 39 30 15 17 35 30 44 30 9
0 16 5 16 10 0 6 9 10 20 10 11 0 20 5 20 10 0 6 43 10 110 10 67 0 110 -4
110 -10z m-60 -500 c0 -5 14 -10 30 -10 17 0 30 -4 30 -10 0 -5 7 -10 15 -10
20 0 125 -105 125 -125 0 -8 5 -15 10 -15 6 0 10 -9 10 -20 0 -11 5 -20 10
-20 6 0 10 -9 10 -20 0 -11 5 -20 10 -20 6 0 10 -13 10 -30 0 -16 5 -30 10
-30 6 0 10 -9 10 -20 0 -16 7 -20 30 -20 17 0 30 -4 30 -10 0 -5 9 -10 20 -10
11 0 20 -4 20 -10 0 -5 9 -10 20 -10 11 0 20 -4 20 -10 0 -5 8 -10 18 -10 10
0 24 -9 32 -20 8 -11 20 -20 27 -20 19 0 103 -86 103 -105 0 -12 -15 -15 -80
-15 -47 0 -80 -4 -80 -10 0 -6 -30 -10 -70 -10 -40 0 -70 -4 -70 -10 0 -5 -22
-10 -50 -10 -27 0 -50 -4 -50 -10 0 -5 -13 -10 -30 -10 -16 0 -30 -4 -30 -10
0 -5 -9 -10 -20 -10 -11 0 -20 -4 -20 -10 0 -5 -13 -10 -28 -10 -16 0 -34 -8
-42 -20 -8 -11 -21 -20 -30 -20 -9 0 -22 -9 -30 -20 -8 -11 -20 -20 -27 -20
-8 0 -84 -71 -171 -158 -87 -87 -166 -159 -175 -159 -9 0 -14 4 -11 8 2 4 -3
14 -11 22 -8 9 -15 27 -15 41 0 14 -4 26 -10 26 -5 0 -10 23 -10 50 0 28 5 50
10 50 6 0 10 18 10 40 0 22 5 40 10 40 6 0 10 23 10 50 0 28 -4 50 -10 50 -5
0 -10 9 -10 20 0 11 -4 20 -10 20 -5 0 -10 9 -10 20 0 11 -4 20 -8 20 -5 0
-15 23 -22 50 -7 28 -17 50 -22 50 -4 0 -8 21 -8 46 0 27 -4 43 -10 39 -5 -3
-10 3 -10 14 0 12 5 21 10 21 6 0 10 23 10 50 0 28 5 50 10 50 6 0 10 9 10 20
0 11 5 20 10 20 6 0 10 8 10 18 0 10 9 24 20 32 11 8 20 20 20 27 0 17 86 103
103 103 7 0 19 9 27 20 8 11 22 20 32 20 10 0 18 5 18 10 0 6 9 10 20 10 11 0
20 5 20 10 0 6 43 10 110 10 67 0 110 -4 110 -10z m-1240 -840 c0 -6 30 -10
70 -10 40 0 70 -4 70 -10 0 -5 18 -10 40 -10 22 0 40 -4 40 -10 0 -5 9 -10 20
-10 11 0 20 -4 20 -10 0 -5 13 -10 28 -10 16 0 34 -8 42 -20 8 -11 22 -20 32
-20 10 0 18 -4 18 -10 0 -5 7 -10 15 -10 18 0 85 -64 85 -80 0 -6 4 -9 8 -6 4
2 9 -7 10 -22 1 -15 7 -28 12 -30 6 -2 10 -35 10 -72 0 -38 5 -72 10 -75 6 -3
10 -44 10 -91 l0 -84 -650 0 -650 0 0 40 c0 22 5 40 10 40 6 0 10 9 10 20 0
11 5 20 10 20 6 0 10 9 10 20 0 11 5 20 10 20 6 0 10 9 10 20 0 11 5 20 10 20
6 0 10 9 10 20 0 11 5 20 10 20 6 0 10 8 10 18 0 10 9 24 20 32 11 8 20 20 20
27 0 16 85 103 100 103 6 0 8 5 5 10 -3 6 2 10 12 10 10 0 25 9 33 20 8 11 22
20 32 20 10 0 18 5 18 10 0 6 7 10 16 10 8 0 12 5 9 10 -4 6 7 10 24 10 17 0
31 5 31 10 0 6 9 10 20 10 11 0 20 5 20 10 0 6 18 10 40 10 22 0 40 5 40 10 0
6 29 10 66 10 41 0 63 4 59 10 -4 6 13 10 44 10 28 0 51 -4 51 -10z m1800 0
c0 -6 33 -10 80 -10 47 0 80 -4 80 -10 0 -5 18 -10 40 -10 22 0 40 -4 40 -10
0 -5 9 -10 20 -10 11 0 20 -4 20 -10 0 -5 9 -10 20 -10 11 0 20 -4 20 -10 0
-5 9 -10 20 -10 11 0 20 -4 20 -10 0 -5 7 -10 16 -10 9 0 24 -9 33 -19 10 -11
23 -21 31 -23 18 -4 140 -125 140 -138 0 -6 9 -20 20 -32 11 -12 20 -28 20
-35 0 -7 5 -13 10 -13 6 0 10 -9 10 -20 0 -11 5 -20 10 -20 6 0 10 -9 10 -20
0 -11 5 -20 10 -20 6 0 10 -13 10 -30 0 -16 5 -30 10 -30 6 0 10 -9 10 -19 0
-11 6 -21 12 -23 9 -3 8 -9 -4 -21 -15 -16 -72 -17 -662 -17 l-646 0 0 80 c0
47 4 80 10 80 6 0 10 30 10 70 0 40 4 70 10 70 6 0 10 16 10 35 0 29 9 44 45
80 24 25 50 45 58 45 7 0 19 9 27 20 8 11 22 20 32 20 10 0 18 5 18 10 0 6 9
10 20 10 11 0 20 5 20 10 0 6 14 10 30 10 17 0 30 5 30 10 0 6 14 10 30 10 17
0 30 5 30 10 0 6 30 10 70 10 40 0 70 4 70 10 0 6 18 10 40 10 22 0 40 -4 40
-10z m-800 -580 c0 -93 -4 -150 -10 -150 -5 0 -10 -18 -10 -40 l0 -40 -110 0
c-107 0 -110 1 -111 23 -1 12 -1 25 0 30 0 4 -3 7 -9 7 -6 0 -10 60 -10 160
l0 160 130 0 130 0 0 -150z m-465 -275 c25 -24 45 -51 45 -60 0 -8 5 -15 10
-15 6 0 10 -7 10 -16 0 -23 25 -44 54 -44 14 0 26 -4 26 -10 0 -5 14 -10 30
-10 28 0 30 -3 30 -35 0 -22 -8 -44 -20 -57 -11 -12 -20 -28 -20 -35 0 -7 -4
-13 -10 -13 -5 0 -10 -8 -10 -18 0 -10 -9 -24 -20 -32 -11 -8 -20 -21 -20 -30
0 -9 -9 -22 -20 -30 -11 -8 -20 -24 -20 -35 0 -16 -2 -17 -10 -5 -8 13 -10 12
-10 -3 0 -20 -125 -147 -144 -147 -6 0 -18 -9 -26 -20 -8 -11 -22 -20 -32 -20
-10 0 -18 -4 -18 -10 0 -5 -9 -10 -20 -10 -11 0 -20 -4 -20 -10 0 -5 -9 -10
-20 -10 -11 0 -20 -4 -20 -10 0 -5 -13 -10 -30 -10 -16 0 -30 -4 -30 -10 0 -5
-13 -10 -30 -10 -16 0 -30 -4 -30 -10 0 -5 -22 -10 -49 -10 -28 0 -53 -4 -56
-10 -3 -6 -52 -10 -111 -10 -63 0 -104 4 -104 10 0 6 -22 10 -50 10 -27 0 -50
5 -50 10 0 6 -13 10 -30 10 -16 0 -30 5 -30 10 0 6 -9 10 -20 10 -11 0 -20 5
-20 10 0 6 -9 10 -20 10 -11 0 -20 5 -20 10 0 6 -9 10 -20 10 -11 0 -20 5 -20
10 0 6 -9 10 -21 10 -11 0 -17 5 -14 10 3 6 1 10 -5 10 -16 0 -180 168 -180
184 0 8 -4 16 -9 18 -5 2 -11 10 -13 18 -2 8 -11 22 -20 31 -10 9 -18 28 -18
43 0 14 -4 26 -10 26 -5 0 -10 14 -10 30 0 17 -4 30 -10 30 -5 0 -10 14 -10
30 0 17 -4 30 -10 30 -5 0 -10 18 -10 40 0 22 -4 40 -10 40 -6 0 -10 27 -10
60 l0 60 240 0 c153 0 240 -4 240 -10 0 -5 9 -10 20 -10 11 0 20 -4 20 -10 0
-5 8 -10 18 -10 10 0 24 -9 32 -20 8 -11 21 -20 30 -20 9 0 22 -9 30 -20 8
-11 22 -20 32 -20 10 0 18 -4 18 -10 0 -5 9 -10 20 -10 11 0 20 -4 20 -10 0
-6 30 -10 70 -10 40 0 70 4 70 10 0 6 8 10 18 10 10 0 24 9 32 20 8 11 21 20
30 20 9 0 22 9 30 20 8 11 22 20 32 20 10 0 18 5 18 10 0 6 9 10 20 10 11 0
20 5 20 10 0 6 9 10 20 10 11 0 20 5 20 10 0 6 14 10 30 10 17 0 30 5 30 10 0
6 28 10 65 10 64 0 66 -1 110 -45z"/>
<path d="M7040 4810 c0 -5 -9 -10 -20 -10 -16 0 -20 -7 -20 -30 0 -16 -4 -30
-10 -30 -6 0 -10 -40 -10 -100 0 -60 -4 -100 -10 -100 -6 0 -10 -80 -10 -220
0 -140 4 -220 10 -220 6 0 10 -35 10 -85 0 -50 -4 -85 -10 -85 -5 0 -10 -8
-10 -17 0 -15 2 -16 10 -3 6 10 10 -92 10 -297 0 -202 -4 -313 -10 -313 -7 0
-10 -141 -10 -404 0 -259 4 -407 10 -411 6 -4 10 -83 10 -206 0 -126 4 -199
10 -199 6 0 9 -3 9 -7 -5 -30 4 -33 81 -33 47 0 80 4 80 10 0 6 7 10 16 10 23
0 44 25 44 54 0 14 5 26 10 26 6 0 10 130 10 370 0 348 1 370 18 370 10 0 24
-9 32 -20 8 -11 21 -20 28 -20 7 0 30 -17 50 -38 20 -21 45 -41 55 -45 9 -3
17 -13 17 -22 0 -8 7 -15 15 -15 9 0 47 -31 85 -70 38 -38 74 -70 79 -70 6 0
56 -45 111 -100 56 -55 106 -100 111 -100 5 0 45 -36 89 -80 44 -44 84 -80 90
-80 6 0 37 -26 69 -57 60 -61 91 -83 116 -83 8 0 15 -4 15 -10 0 -5 9 -10 20
-10 11 0 20 -4 20 -10 0 -6 30 -10 70 -10 l70 0 0 90 c0 53 -4 90 -10 90 -5 0
-10 9 -10 21 0 11 -4 17 -10 14 -5 -3 -10 -1 -10 5 0 14 -66 80 -80 80 -6 0
-60 49 -120 110 -60 61 -114 110 -120 110 -6 0 -42 32 -80 70 -38 39 -74 70
-80 70 -6 0 -55 45 -110 100 -55 55 -104 100 -110 100 -6 0 -48 38 -95 85 -62
61 -85 92 -85 110 0 16 6 25 15 25 9 0 56 41 105 90 49 50 94 90 100 90 6 0
42 32 80 70 38 39 74 70 80 70 6 0 33 23 60 50 27 28 54 50 60 50 6 0 38 27
70 60 32 33 64 60 70 60 5 0 53 43 105 95 l95 95 0 60 c0 51 -4 65 -25 85 -13
14 -31 25 -40 25 -8 0 -15 5 -15 10 0 6 -13 10 -30 10 -16 0 -30 -4 -30 -10 0
-5 -11 -10 -25 -10 -16 0 -40 -15 -66 -40 -23 -22 -46 -40 -51 -40 -5 0 -27
-18 -48 -40 -21 -22 -44 -40 -50 -40 -6 0 -41 -30 -78 -67 -38 -38 -74 -69
-81 -71 -7 -1 -39 -29 -71 -62 -33 -33 -64 -60 -70 -60 -6 0 -42 -31 -80 -70
-38 -38 -74 -70 -80 -70 -6 0 -31 -20 -56 -45 -25 -25 -50 -42 -56 -39 -7 4
-8 3 -4 -4 4 -7 2 -12 -4 -12 -6 0 -29 -18 -51 -41 -72 -75 -69 -105 -69 701
l0 712 -47 44 c-43 41 -50 44 -100 44 -29 0 -53 -4 -53 -10z"/>
<path d="M1520 4010 c0 -5 -22 -10 -50 -10 -27 0 -50 -4 -50 -10 0 -5 -13 -10
-30 -10 -16 0 -30 -4 -30 -10 0 -5 -13 -10 -30 -10 -16 0 -30 -4 -30 -10 0 -5
-9 -10 -20 -10 -11 0 -20 -4 -20 -10 0 -5 -9 -10 -20 -10 -11 0 -20 -4 -20
-10 0 -5 -9 -10 -20 -10 -11 0 -20 -4 -20 -10 0 -5 -8 -10 -18 -10 -10 0 -24
-9 -32 -20 -8 -11 -21 -20 -30 -20 -9 0 -22 -9 -30 -20 -8 -11 -20 -20 -27
-20 -17 0 -203 -186 -203 -203 0 -7 -9 -19 -20 -27 -11 -8 -20 -21 -20 -30 0
-9 -9 -22 -20 -30 -11 -8 -20 -22 -20 -32 0 -10 -4 -18 -10 -18 -5 0 -10 -9
-10 -20 0 -11 -4 -20 -10 -20 -5 0 -10 -9 -10 -20 0 -11 -4 -20 -10 -20 -5 0
-10 -13 -10 -30 0 -16 -4 -30 -10 -30 -5 0 -10 -13 -10 -30 0 -16 -4 -30 -10
-30 -5 0 -10 -22 -10 -50 0 -27 -4 -50 -10 -50 -6 0 -10 -70 -10 -190 0 -120
4 -190 10 -190 6 0 10 -22 10 -50 0 -27 5 -50 10 -50 6 0 10 -13 10 -30 0 -16
5 -30 10 -30 6 0 10 -13 10 -30 0 -16 5 -30 10 -30 6 0 10 -9 10 -20 0 -11 5
-20 10 -20 6 0 10 -8 10 -18 0 -10 9 -24 20 -32 11 -8 20 -21 20 -30 0 -9 9
-22 20 -30 11 -8 20 -21 20 -28 0 -7 18 -31 40 -52 22 -21 40 -43 40 -50 0
-14 66 -80 81 -80 6 0 24 -13 39 -30 15 -16 34 -30 42 -30 7 0 20 -9 28 -20 8
-11 22 -20 32 -20 10 0 18 -4 18 -10 0 -5 9 -10 20 -10 11 0 20 -4 20 -10 0
-5 9 -10 20 -10 11 0 20 -4 20 -10 0 -5 9 -10 20 -10 11 0 20 -4 20 -10 0 -5
14 -10 30 -10 17 0 30 -4 30 -10 0 -5 14 -10 30 -10 17 0 30 -4 30 -10 0 -5
18 -10 39 -10 22 0 41 -5 43 -10 4 -14 432 -14 436 0 2 5 21 10 43 10 21 0 39
5 39 10 0 6 9 10 20 10 11 0 20 5 20 10 0 6 14 10 30 10 17 0 30 5 30 10 0 6
9 10 20 10 11 0 20 5 20 10 0 6 9 10 20 10 11 0 20 5 20 10 0 6 9 10 20 10 11
0 20 5 20 10 0 6 8 10 18 10 10 0 24 9 32 20 8 11 21 20 30 20 9 0 22 9 30 20
8 11 21 20 30 20 9 0 22 9 30 20 8 11 21 20 30 20 9 0 22 9 30 20 23 31 50 26
50 -10 0 -16 -4 -30 -10 -30 -6 0 -10 -47 -10 -120 0 -73 -4 -120 -10 -120 -5
0 -10 -18 -10 -40 0 -22 -4 -40 -10 -40 -5 0 -10 -13 -10 -30 0 -16 -4 -30
-10 -30 -5 0 -10 -13 -10 -30 0 -16 -4 -30 -10 -30 -5 0 -10 -8 -10 -18 0 -10
-9 -24 -20 -32 -11 -8 -20 -20 -20 -28 0 -16 -65 -82 -81 -82 -6 0 -24 -13
-39 -30 -15 -16 -35 -30 -44 -30 -9 0 -16 -4 -16 -10 0 -5 -9 -10 -20 -10 -11
0 -20 -4 -20 -10 0 -5 -9 -10 -20 -10 -11 0 -20 -4 -20 -10 0 -5 -9 -10 -20
-10 -11 0 -20 -4 -20 -10 0 -5 -18 -10 -40 -10 -22 0 -40 -4 -40 -10 0 -5 -18
-10 -40 -10 -22 0 -40 -4 -40 -10 0 -6 -67 -10 -180 -10 -113 0 -180 4 -180
10 0 6 -22 10 -50 10 -27 0 -50 5 -50 10 0 6 -13 10 -30 10 -16 0 -30 5 -30
10 0 6 -13 10 -30 10 -16 0 -30 5 -30 10 0 6 -9 10 -20 10 -11 0 -20 5 -20 10
0 6 -9 10 -20 10 -11 0 -20 5 -20 10 0 6 -7 10 -15 10 -17 0 -205 184 -205
201 0 14 -26 39 -40 39 -7 0 -25 14 -40 30 -15 17 -35 30 -43 30 -9 0 -19 5
-22 10 -3 6 -35 10 -71 10 l-64 0 0 -80 c0 -47 4 -80 10 -80 6 0 10 -18 10
-40 0 -22 5 -40 10 -40 6 0 10 -8 10 -18 0 -10 9 -24 20 -32 11 -8 20 -20 20
-27 0 -16 125 -143 141 -143 6 0 24 -13 39 -30 15 -16 35 -30 44 -30 9 0 16
-4 16 -10 0 -5 9 -10 20 -10 11 0 20 -4 20 -10 0 -5 9 -10 20 -10 11 0 20 -4
20 -10 0 -5 9 -10 20 -10 11 0 20 -4 20 -10 0 -5 9 -10 20 -10 11 0 20 -4 20
-10 0 -5 14 -10 30 -10 17 0 30 -4 30 -10 0 -5 14 -10 30 -10 17 0 30 -4 30
-10 0 -5 18 -10 40 -10 22 0 40 -4 40 -10 0 -6 26 -10 59 -10 33 0 63 -5 66
-10 8 -14 335 -14 335 0 0 6 30 10 70 10 40 0 70 4 70 10 0 6 18 10 40 10 22
0 40 5 40 10 0 6 14 10 30 10 17 0 30 5 30 10 0 6 9 10 20 10 11 0 20 5 20 10
0 6 13 10 28 10 16 0 34 8 42 20 8 11 22 20 32 20 10 0 18 5 18 10 0 6 8 10
18 10 10 0 24 9 32 20 8 11 20 20 27 20 16 0 203 185 203 200 0 6 9 20 20 32
11 12 20 28 20 35 0 7 5 13 10 13 6 0 10 13 10 29 0 16 4 31 10 33 5 2 11 15
12 31 1 15 6 27 10 27 4 0 8 14 8 30 0 17 5 30 10 30 6 0 10 23 10 50 0 28 5
50 10 50 6 0 10 30 10 70 0 40 4 70 10 70 7 0 10 313 10 920 0 607 -3 920 -10
920 -5 0 -10 21 -10 46 0 45 -22 85 -35 64 -3 -6 -50 -10 -106 -10 l-99 0 0
-100 c0 -60 -4 -100 -10 -100 -6 0 -10 -27 -10 -60 0 -64 -7 -72 -30 -40 -8
11 -21 20 -28 20 -7 0 -31 18 -52 40 -21 22 -45 40 -52 40 -7 0 -20 9 -28 20
-8 11 -21 20 -30 20 -9 0 -22 9 -30 20 -8 11 -22 20 -32 20 -10 0 -18 5 -18
10 0 6 -9 10 -20 10 -11 0 -20 5 -20 10 0 6 -8 10 -18 10 -10 0 -24 9 -32 20
-8 12 -26 20 -42 20 -15 0 -28 5 -28 10 0 6 -13 10 -30 10 -16 0 -30 5 -30 10
0 6 -22 10 -50 10 -27 0 -50 5 -50 10 0 6 -60 10 -160 10 -100 0 -160 -4 -160
-10z m280 -260 c0 -5 23 -10 50 -10 28 0 50 -4 50 -10 0 -5 14 -10 30 -10 17
0 30 -4 30 -10 0 -5 14 -10 30 -10 17 0 30 -4 30 -10 0 -5 9 -10 20 -10 11 0
20 -4 20 -10 0 -5 9 -10 20 -10 11 0 20 -4 20 -10 0 -5 8 -10 18 -10 10 0 24
-9 32 -20 8 -11 20 -20 27 -20 17 0 163 -146 163 -163 0 -7 9 -19 20 -27 11
-8 20 -22 20 -32 0 -10 5 -18 10 -18 6 0 10 -9 10 -20 0 -11 5 -20 10 -20 6 0
10 -9 10 -20 0 -11 5 -20 10 -20 6 0 10 -18 10 -40 0 -22 5 -40 10 -40 6 0 10
-18 10 -40 0 -22 5 -40 10 -40 6 0 10 -57 10 -150 0 -93 -4 -150 -10 -150 -5
0 -10 -18 -10 -40 0 -22 -4 -40 -10 -40 -5 0 -10 -18 -10 -40 0 -22 -4 -40
-10 -40 -5 0 -10 -9 -10 -20 0 -11 -4 -20 -10 -20 -5 0 -10 -8 -10 -18 0 -10
-9 -24 -19 -32 -11 -7 -18 -17 -15 -21 2 -4 -7 -19 -21 -33 -14 -14 -25 -30
-25 -36 0 -14 -86 -100 -101 -100 -6 0 -24 -13 -39 -30 -15 -16 -35 -30 -44
-30 -9 0 -16 -4 -16 -10 0 -5 -9 -10 -20 -10 -11 0 -20 -4 -20 -10 0 -5 -9
-10 -20 -10 -11 0 -20 -4 -20 -10 0 -5 -9 -10 -20 -10 -11 0 -20 -4 -20 -9 0
-10 -44 -19 -127 -28 -29 -2 -53 -9 -53 -14 0 -6 -50 -9 -120 -8 -66 0 -120 5
-120 10 0 5 -22 9 -50 9 -27 0 -50 5 -50 10 0 6 -13 10 -30 10 -16 0 -30 5
-30 10 0 6 -13 10 -30 10 -16 0 -30 5 -30 10 0 6 -9 10 -20 10 -11 0 -20 5
-20 10 0 6 -9 10 -20 10 -11 0 -20 5 -20 10 0 6 -7 10 -16 10 -9 0 -29 14 -44
30 -15 17 -33 30 -39 30 -14 0 -121 106 -121 120 0 6 -13 24 -30 42 -16 17
-30 37 -30 44 0 8 -4 14 -10 14 -5 0 -10 14 -10 30 0 17 -4 30 -10 30 -5 0
-10 9 -10 20 0 11 -4 20 -10 20 -5 0 -10 18 -10 40 0 22 -4 40 -10 40 -5 0
-10 23 -10 50 0 28 -4 50 -10 50 -6 0 -10 30 -10 70 0 40 4 70 10 70 6 0 10
27 10 60 0 33 4 60 10 60 6 0 10 14 10 30 0 17 5 30 10 30 6 0 10 14 10 30 0
17 5 30 10 30 6 0 10 9 10 20 0 11 5 20 10 20 6 0 10 9 10 20 0 11 5 20 10 20
6 0 10 8 10 18 0 10 9 24 20 32 11 8 20 20 20 28 0 7 22 35 50 62 31 30 45 50
37 53 -7 3 -4 6 6 6 10 1 36 19 57 41 21 22 45 40 52 40 7 0 20 9 28 20 8 11
22 20 32 20 10 0 18 5 18 10 0 6 9 10 20 10 11 0 20 5 20 10 0 6 14 10 30 10
17 0 30 5 30 10 0 6 14 10 30 10 17 0 30 5 30 10 0 6 27 10 60 10 33 0 60 4
60 10 0 6 37 10 90 10 53 0 90 -4 90 -10z"/>
</g>
</svg>
